# xmcd
#
# Track frame offsets: 
#        150
#        20331
#        44258
#        56012
#        72583
#        87017
#        112500
#        131297
#        146846
#        167104
#        187426
#        204300
#        224376
#        246957
#        265278
#
# Disc length: 3768 seconds
#
# Revision: 0
# Processed by: cddbd v1.5.2PL0 Copyright (c) Steve Scherf et al.
# Submitted via: ExactAudioCopy v1.0b2
#
DISCID=de0eb60f
DTITLE=10cc - Bloody Tourists (SHM-CD)
DYEAR=1978
DGENRE=Pop/Rock
TTITLE0=Dreadlock Holiday
TTITLE1=For You And I
TTITLE2=Take These Chains
TTITLE3=Shock On The Tube (Don't Want Love)
TTITLE4=Last Night
TTITLE5=The Anonymous Alcoholic
TTITLE6=Reds In My Bed
TTITLE7=Life Line
TTITLE8=Tokyo
TTITLE9=Old Mister Time
TTITLE10=From Rochdale To Ocho Rios
TTITLE11=Everything You've Wanted To Know About!!! (Exclamation Marks)
TTITLE12=Dreadlock Holiday (Long Version)
TTITLE13=Nothing Can Move Me
TTITLE14=For You And I (DJ Edit)
EXTD=
EXTT0=
EXTT1=
EXTT2=
EXTT3=
EXTT4=
EXTT5=
EXTT6=
EXTT7=
EXTT8=
EXTT9=
EXTT10=
EXTT11=
EXTT12=
EXTT13=
EXTT14=
PLAYORDER=
